<svg
   width="15"
   height="15"
   fill="currentColor"
   viewBox="0 0 6.35 6.35"
   id="svg351"
   xmlns="http://www.w3.org/2000/svg">
    <path d="M 3.1758268 0 A 0.2539995 0.2539995 0 0 0 2.9219922 0.25383464 L 2.9219922 0.68130208 C 1.7430511 0.80091479 0.80090534 1.7431151 0.68130208 2.9219922 L 0.25383464 2.9219922 A 0.2539995 0.2539995 0 0 0 0 3.1758268 A 0.2539995 0.2539995 0 0 0 0.25383464 3.4296615 L 0.68130208 3.4296615 C 0.80090534 4.6083392 1.7430511 5.5492844 2.9219922 5.6686979 L 2.9219922 6.0953385 A 0.2539995 0.2539995 0 0 0 3.1758268 6.35 A 0.2539995 0.2539995 0 0 0 3.4296615 6.0953385 L 3.4296615 5.6686979 C 4.6084032 5.5492844 5.5492939 4.6083392 5.6686979 3.4296615 L 6.0953385 3.4296615 A 0.2539995 0.2539995 0 0 0 6.35 3.1758268 A 0.2539995 0.2539995 0 0 0 6.0953385 2.9219922 L 5.6686979 2.9219922 C 5.5492939 1.7431151 4.6084032 0.80091479 3.4296615 0.68130208 L 3.4296615 0.25383464 A 0.2539995 0.2539995 0 0 0 3.1758268 0 z M 2.9219922 1.3204362 L 2.9219922 1.8355469 A 0.2539995 0.2539995 0 0 0 3.1758268 2.0902083 A 0.2539995 0.2539995 0 0 0 3.4296615 1.8355469 L 3.4296615 1.3204362 C 4.2631803 1.4325109 4.9177732 2.0883187 5.0295638 2.9219922 L 4.5152799 2.9219922 A 0.2539995 0.2539995 0 0 0 4.2614453 3.1758268 A 0.2539995 0.2539995 0 0 0 4.5152799 3.4296615 L 5.0295638 3.4296615 C 4.9177717 4.2630983 4.263197 4.9177508 3.4296615 5.0295638 L 3.4296615 4.5136263 A 0.2539995 0.2539995 0 0 0 3.1758268 4.2597917 A 0.2539995 0.2539995 0 0 0 2.9219922 4.5136263 L 2.9219922 5.0295638 C 2.0882201 4.9177524 1.43249 4.2630817 1.3204362 3.4296615 L 1.8355469 3.4296615 A 0.2539995 0.2539995 0 0 0 2.0902083 3.1758268 A 0.2539995 0.2539995 0 0 0 1.8355469 2.9219922 L 1.3204362 2.9219922 C 1.4324885 2.0883353 2.0882367 1.4325093 2.9219922 1.3204362 z M 3.175 2.9211654 A 0.25400001 0.25400001 0 0 0 2.9211654 3.175 A 0.25400001 0.25400001 0 0 0 3.175 3.4288346 A 0.25400001 0.25400001 0 0 0 3.4288346 3.175 A 0.25400001 0.25400001 0 0 0 3.175 2.9211654 z " />
</svg>