<svg
   width="15"
   height="15"
   fill="currentColor"
   viewBox="0 0 6.35 6.35"
   xmlns="http://www.w3.org/2000/svg">
   <path d="M 3.175 0.00082682292 A 0.2116777 0.2116976 0 0 0 2.9906185 0.10500651 L 1.5246615 2.6466602 A 0.2116777 0.2116976 0 0 0 1.709043 2.9625065 L 4.6417839 2.9625065 A 0.2116777 0.2116976 0 0 0 4.8236849 2.6466602 L 3.3577279 0.10500651 A 0.2116777 0.2116976 0 0 0 3.175 0.00082682292 z M 3.175 0.635 L 4.2763281 2.5408268 L 2.0744987 2.5408268 L 3.175 0.635 z M 1.4824935 3.3866667 C 0.66670028 3.3866667 -2.5066344e-16 4.053367 0 4.8691602 C 0 5.6849533 0.66670028 6.35 1.4824935 6.35 C 2.2982867 6.35 2.9625065 5.6849533 2.9625065 4.8691602 C 2.9625065 4.053367 2.2982867 3.3866666 1.4824935 3.3866667 z M 3.753776 3.4065104 C 3.5522729 3.416945 3.3866666 3.5872956 3.3866667 3.7909831 L 3.3866667 5.9647005 C 3.3866666 6.1749586 3.5633653 6.35 3.7736198 6.35 L 5.9630469 6.35 C 6.1733014 6.35 6.35 6.1749586 6.35 5.9647005 L 6.35 3.7909831 C 6.35 3.5807251 6.1733014 3.4065104 5.9630469 3.4065104 L 3.7736198 3.4065104 C 3.7670493 3.4065104 3.7602761 3.4061738 3.753776 3.4065104 z M 1.4824935 3.8108268 C 2.069501 3.8108268 2.5391732 4.2821526 2.5391732 4.8691602 C 2.5391732 5.4561677 2.069501 5.9258398 1.4824935 5.9258398 C 0.89548595 5.9258398 0.42416016 5.4561677 0.42416016 4.8691602 C 0.42416016 4.2821526 0.89548595 3.8108268 1.4824935 3.8108268 z M 3.8108268 3.8281901 L 5.9258398 3.8281901 L 5.9258398 5.9258398 L 3.8108268 5.9258398 L 3.8108268 3.8281901 z " />
</svg>