<svg
   width="15"
   height="15"
   fill="currentColor"
   viewBox="0 0 6.35 6.35"
   xmlns="http://www.w3.org/2000/svg">
  <path d="M 3.175 0.00082682292 A 0.2116777 0.2116976 0 0 0 2.9906185 0.10500651 L 1.5246615 2.6466602 A 0.2116777 0.2116976 0 0 0 1.709043 2.9625065 L 4.6417839 2.9625065 A 0.2116777 0.2116976 0 0 0 4.8236849 2.6466602 L 3.3577279 0.10500651 A 0.2116777 0.2116976 0 0 0 3.175 0.00082682292 z M 1.4824935 3.3866667 C 0.66670109 3.3866667 0 4.0533678 0 4.8691602 C 0 5.6849524 0.66670109 6.35 1.4824935 6.35 C 2.2982859 6.35 2.9625065 5.6849524 2.9625065 4.8691602 C 2.9625065 4.0533678 2.2982859 3.3866666 1.4824935 3.3866667 z M 3.753776 3.4065104 C 3.5522731 3.416945 3.3866666 3.5872958 3.3866667 3.7909831 L 3.3866667 5.9647005 C 3.3866666 6.1749584 3.5633655 6.35 3.7736198 6.35 L 5.9630469 6.35 C 6.1733012 6.35 6.35 6.1749584 6.35 5.9647005 L 6.35 3.7909831 C 6.35 3.5807253 6.1733012 3.4065104 5.9630469 3.4065104 L 3.7736198 3.4065104 C 3.7670498 3.4065104 3.7602758 3.4061738 3.753776 3.4065104 z " />
</svg>