<?xml version="1.0" encoding="UTF-8" standalone="no"?>
<svg
   width="15"
   height="15"
   fill="currentColor"
   viewBox="0 0 6.35 6.35"
   xml:space="preserve"
   version="1.1"
   id="svg192"
   sodipodi:docname="mini.source.svg"
   inkscape:version="1.2.2 (732a01da63, 2022-12-09)"
   xmlns:inkscape="http://www.inkscape.org/namespaces/inkscape"
   xmlns:sodipodi="http://sodipodi.sourceforge.net/DTD/sodipodi-0.dtd"
   xmlns="http://www.w3.org/2000/svg"
   xmlns:svg="http://www.w3.org/2000/svg"><defs
   id="defs196" /><sodipodi:namedview
   id="namedview194"
   pagecolor="#ffffff"
   bordercolor="#000000"
   borderopacity="0.25"
   inkscape:showpageshadow="2"
   inkscape:pageopacity="0.0"
   inkscape:pagecheckerboard="0"
   inkscape:deskcolor="#d1d1d1"
   showgrid="false"
   inkscape:zoom="10.842304"
   inkscape:cx="13.511888"
   inkscape:cy="10.053214"
   inkscape:window-width="1366"
   inkscape:window-height="705"
   inkscape:window-x="-8"
   inkscape:window-y="-8"
   inkscape:window-maximized="1"
   inkscape:current-layer="svg192" />
   
<rect
   style="fill:#000000;stroke:#000000;stroke-width:0.55033;stroke-linecap:round;stroke-linejoin:round"
   id="rect366"
   width="4.1834784"
   height="4.1834784"
   x="0.27516702"
   y="1.8913544"
   rx="0.47537819"
   ry="0.48128349" /><path
   style="color:#000000;fill:#000000;stroke-linecap:round;stroke-linejoin:round;stroke-dasharray:2.20133, 1.10067;stroke-dashoffset:2.20133;-inkscape-stroke:none"
   d="m 0.9199917,0 -0.068359,0.00390625 c -0.00914,1.9637e-4 -0.018267,8.4823e-4 -0.027344,0.00195313 l -0.064453,0.01171875 c -0.00917,8.4356e-4 -0.018301,0.0021473 -0.027344,0.0039063 L 0.6680385,0.0390625 C 0.6594541,0.0412564 0.6509807,0.04386361 0.6426479,0.046875 l -0.060547,0.02148437 c -0.00866,0.0034734 -0.017131,0.0073847 -0.025391,0.01171875 l -0.056641,0.02734375 c -0.0087,0.00411 -0.017172,0.008674 -0.025391,0.0136719 l -0.052734,0.0332031 c -0.00807,0.004805 -0.015897,0.01002 -0.023437,0.015625 l -0.050781,0.0371094 c -0.00679,0.005545 -0.013304,0.0114111 -0.019531,0.0175781 l -0.046875,0.0429688 c -0.00617,0.006227 -0.012033,0.0127447 -0.017578,0.0195313 l -0.042969,0.0468749 c -0.00617,0.006227 -0.012033,0.0127447 -0.017578,0.0195313 L 0.1660854,0.40625 c -0.00555,0.006906 -0.010766,0.0140756 -0.015625,0.0214844 l -0.03125,0.0546875 c -0.00494,0.007583 -0.0095,0.0154049 -0.013672,0.0234375 l -0.027344,0.0585938 c -0.00367,0.008297 -0.00693,0.0167712 -0.00977,0.0253906 l -0.023437,0.0605469 c -0.00301,0.008333 -0.00562,0.0168063 -0.00781,0.0253906 l -0.015625,0.0644531 c -0.00242,0.009009 -0.00437,0.0181358 -0.00586,0.0273438 l -0.00977,0.0664063 c -0.0011,0.009077 -0.00175,0.0182025 -0.00195,0.0273438 L 6.24e-5,0.9296877 c -8.32e-5,0.003906 -8.32e-5,0.007813 0,0.0117188 V 1.0488281 C -6.16e-5,1.2009763 0.1233122,1.3243467 0.2754604,1.3242187 0.4276057,1.3243427 0.550975,1.2009734 0.550851,1.0488281 V 0.9492188 L 0.552801,0.9003907 0.558661,0.8613282 0.568431,0.8242188 0.58015,0.7871094 0.597728,0.7539063 0.617259,0.7207032 0.638743,0.6914063 0.664134,0.6640625 0.691478,0.6386719 0.720775,0.6171875 0.752025,0.5976562 0.785228,0.5800781 0.820384,0.5683593 0.857493,0.5585933 0.894602,0.5527343 0.947336,0.5507813 C 1.0995743,0.54353576 1.2169233,0.41392614 1.2090542,0.26171875 1.201809,0.1094802 1.0721993,-0.0078691 0.9199917,0 Z"
   id="rect1697" /><path
   style="color:#000000;fill:#000000;stroke-linecap:round;stroke-linejoin:round;stroke-dasharray:2.20133, 1.10067;stroke-dashoffset:2.20133;-inkscape-stroke:none"
   d="m 5.4300078,0 0.068359,0.00390625 c 0.00914,1.9637e-4 0.018267,8.4823e-4 0.027344,0.00195313 l 0.064453,0.01171875 c 0.00917,8.4356e-4 0.018301,0.0021473 0.027344,0.0039063 L 5.681961,0.0390625 c 0.00858,0.0021939 0.017058,0.0048011 0.025391,0.0078125 l 0.060547,0.02148437 c 0.00866,0.0034734 0.017131,0.0073847 0.025391,0.01171875 l 0.056641,0.02734375 c 0.0087,0.00411 0.017172,0.008674 0.025391,0.0136719 l 0.052734,0.0332031 c 0.00807,0.004805 0.015897,0.01002 0.023437,0.015625 l 0.050781,0.0371094 c 0.00679,0.005545 0.013304,0.0114111 0.019531,0.0175781 l 0.046875,0.0429688 c 0.00617,0.006227 0.012033,0.0127447 0.017578,0.0195313 l 0.042969,0.0468749 c 0.00617,0.006227 0.012033,0.0127447 0.017578,0.0195313 l 0.03711,0.0527343 c 0.00555,0.006906 0.010766,0.0140756 0.015625,0.0214844 l 0.03125,0.0546875 c 0.00494,0.007583 0.0095,0.0154049 0.013672,0.0234375 l 0.027344,0.0585938 c 0.00367,0.008297 0.00693,0.0167712 0.00977,0.0253906 l 0.023437,0.0605469 c 0.00301,0.008333 0.00562,0.0168063 0.00781,0.0253906 l 0.015625,0.0644531 c 0.00242,0.009009 0.00437,0.0181358 0.00586,0.0273438 l 0.00977,0.0664063 c 0.0011,0.009077 0.00175,0.0182025 0.00195,0.0273438 l 0.00391,0.0683594 c 8.32e-5,0.003906 8.32e-5,0.007813 0,0.0117188 V 1.0488281 C 6.3500611,1.2009763 6.2266873,1.3243467 6.0745391,1.3242187 5.9223938,1.3243427 5.7990245,1.2009734 5.7991485,1.0488281 V 0.9492188 L 5.7971985,0.9003907 5.7913385,0.8613282 5.7815685,0.8242188 5.7698495,0.7871094 5.7522715,0.7539063 5.7327405,0.7207032 5.7112565,0.6914063 5.6858655,0.6640625 5.6585215,0.6386719 5.6292245,0.6171875 5.5979745,0.5976562 5.5647715,0.5800781 5.5296155,0.5683593 5.4925065,0.5585933 5.4553975,0.5527343 5.4026635,0.5507813 C 5.2504252,0.54353576 5.1330762,0.41392614 5.1409453,0.26171875 5.1481905,0.1094802 5.2778002,-0.0078691 5.4300078,0 Z"
   id="path1707" /><path
   style="color:#000000;fill:#000000;stroke-linecap:round;stroke-linejoin:round;stroke-dasharray:2.20133, 1.10067;stroke-dashoffset:2.20133;-inkscape-stroke:none"
   d="m 5.4300078,6.3496263 0.068359,-0.00391 c 0.00914,-1.964e-4 0.018267,-8.482e-4 0.027344,-0.00195 l 0.064453,-0.011719 c 0.00917,-8.435e-4 0.018301,-0.00215 0.027344,-0.00391 l 0.064453,-0.017578 c 0.00858,-0.00219 0.017058,-0.0048 0.025391,-0.00781 l 0.060547,-0.021484 c 0.00866,-0.00347 0.017131,-0.00738 0.025391,-0.011719 l 0.056641,-0.027344 c 0.0087,-0.00411 0.017172,-0.00867 0.025391,-0.013672 l 0.052734,-0.033203 c 0.00807,-0.0048 0.015897,-0.01002 0.023437,-0.015625 l 0.050781,-0.037109 c 0.00679,-0.00555 0.013304,-0.011411 0.019531,-0.017578 L 6.06868,6.0820481 c 0.00617,-0.00623 0.012033,-0.012745 0.017578,-0.019531 l 0.042969,-0.046875 c 0.00617,-0.00623 0.012033,-0.012745 0.017578,-0.019531 l 0.03711,-0.052734 c 0.00555,-0.00691 0.010766,-0.014076 0.015625,-0.021484 l 0.03125,-0.054687 c 0.00494,-0.00758 0.0095,-0.015405 0.013672,-0.023437 l 0.027344,-0.058594 c 0.00367,-0.0083 0.00693,-0.016771 0.00977,-0.025391 l 0.023437,-0.060547 c 0.00301,-0.00833 0.00562,-0.016806 0.00781,-0.025391 l 0.015625,-0.064453 c 0.00242,-0.00901 0.00437,-0.018136 0.00586,-0.027344 l 0.00977,-0.066406 c 0.0011,-0.00908 0.00175,-0.018203 0.00195,-0.027344 l 0.00391,-0.068359 c 8.32e-5,-0.00391 8.32e-5,-0.00781 0,-0.011719 V 5.3007981 C 6.3500611,5.1486499 6.2266873,5.0252795 6.0745391,5.0254075 5.9223938,5.0252835 5.7990245,5.1486528 5.7991485,5.3007981 v 0.099609 l -0.00195,0.048828 -0.00586,0.039063 -0.00977,0.037109 -0.011719,0.037109 -0.017578,0.033203 -0.019531,0.033203 -0.021484,0.029297 -0.025391,0.027344 -0.027344,0.025391 -0.029297,0.021484 -0.03125,0.019531 -0.033203,0.017578 -0.035156,0.011719 -0.037109,0.00977 -0.037109,0.00586 -0.052734,0.00195 c -0.1522383,0.00725 -0.2695873,0.1368552 -0.2617182,0.2890626 0.00725,0.1522386 0.1368549,0.2695879 0.2890625,0.2617188 z"
   id="path1709" /><g
   id="g1774"
   transform="translate(0.84666671,0.1265399)"><path
     style="color:#000000;fill:#000000;stroke-linecap:round;stroke-linejoin:round;stroke-dasharray:2.20133, 1.10067;stroke-dashoffset:2.20133;-inkscape-stroke:none"
     d="m 5.5033332,3.5146671 c 1.236e-4,-0.152145 -0.1232455,-0.275514 -0.2753906,-0.27539 -0.1521451,-1.24e-4 -0.2755142,0.123245 -0.2753906,0.27539 v 0.7609184 c -1.242e-4,0.152146 0.1232451,0.275515 0.2753906,0.275391 0.1521455,1.24e-4 0.2755148,-0.123245 0.2753906,-0.275391 z"
     id="path1719"
     sodipodi:nodetypes="ccccccc" /><path
     style="color:#000000;fill:#000000;stroke-linecap:round;stroke-linejoin:round;stroke-dasharray:2.20133, 1.10067;stroke-dashoffset:2.20133;-inkscape-stroke:none"
     d="m 5.5033332,1.8213337 c 1.236e-4,-0.152145 -0.1232455,-0.275514 -0.2753906,-0.27539 -0.1521451,-1.24e-4 -0.2755142,0.123245 -0.2753906,0.27539 v 0.7609184 c -1.242e-4,0.152146 0.1232451,0.275515 0.2753906,0.275391 0.1521455,1.24e-4 0.2755148,-0.123245 0.2753906,-0.275391 z"
     id="path1770"
     sodipodi:nodetypes="ccccccc" /></g><g
   id="g1780"
   transform="translate(-4.9525519,-0.4992572)"><path
     style="color:#000000;fill:#000000;stroke-linecap:round;stroke-linejoin:round;stroke-dasharray:2.20133, 1.10067;stroke-dashoffset:2.20133;-inkscape-stroke:none"
     d="m 5.5033332,3.5146671 c 1.236e-4,-0.152145 -0.1232455,-0.275514 -0.2753906,-0.27539 -0.1521451,-1.24e-4 -0.2755142,0.123245 -0.2753906,0.27539 v 0.7609184 c -1.242e-4,0.152146 0.1232451,0.275515 0.2753906,0.275391 0.1521455,1.24e-4 0.2755148,-0.123245 0.2753906,-0.275391 z"
     id="path1776"
     sodipodi:nodetypes="ccccccc" /><path
     style="color:#000000;fill:#000000;stroke-linecap:round;stroke-linejoin:round;stroke-dasharray:2.20133, 1.10067;stroke-dashoffset:2.20133;-inkscape-stroke:none"
     d="m 5.5033332,1.6694859 c 1.236e-4,-0.152145 -0.1232455,-0.275514 -0.2753906,-0.27539 -0.1521451,-1.24e-4 -0.2755142,0.123245 -0.2753906,0.27539 v 1.5063532 c -1.242e-4,0.152146 0.1232451,0.275515 0.2753906,0.275391 0.1521455,1.24e-4 0.2755148,-0.123245 0.2753906,-0.275391 z"
     id="path1778"
     sodipodi:nodetypes="ccccccc" /></g><g
   id="g1786"
   transform="rotate(90,5.588006,0.63545408)"><path
     style="color:#000000;fill:#000000;stroke-linecap:round;stroke-linejoin:round;stroke-dasharray:2.20133, 1.10067;stroke-dashoffset:2.20133;-inkscape-stroke:none"
     d="m 5.5033332,3.5146671 c 1.236e-4,-0.152145 -0.1232455,-0.275514 -0.2753906,-0.27539 -0.1521451,-1.24e-4 -0.2755142,0.123245 -0.2753906,0.27539 v 0.7609184 c -1.242e-4,0.152146 0.1232451,0.275515 0.2753906,0.275391 0.1521455,1.24e-4 0.2755148,-0.123245 0.2753906,-0.275391 z"
     id="path1782"
     sodipodi:nodetypes="ccccccc" /><path
     style="color:#000000;fill:#000000;stroke-linecap:round;stroke-linejoin:round;stroke-dasharray:2.20133, 1.10067;stroke-dashoffset:2.20133;-inkscape-stroke:none"
     d="m 5.5033332,1.8213337 c 1.236e-4,-0.152145 -0.1232455,-0.275514 -0.2753906,-0.27539 -0.1521451,-1.24e-4 -0.2755142,0.123245 -0.2753906,0.27539 v 0.7609184 c -1.242e-4,0.152146 0.1232451,0.275515 0.2753906,0.275391 0.1521455,1.24e-4 0.2755148,-0.123245 0.2753906,-0.275391 z"
     id="path1784"
     sodipodi:nodetypes="ccccccc" /></g><g
   id="g1792"
   transform="rotate(90,2.6883967,3.5350634)"><path
     style="color:#000000;fill:#000000;stroke-linecap:round;stroke-linejoin:round;stroke-dasharray:2.20133, 1.10067;stroke-dashoffset:2.20133;-inkscape-stroke:none"
     d="m 5.5033332,3.5146671 c 1.236e-4,-0.152145 -0.1232455,-0.275514 -0.2753906,-0.27539 -0.1521451,-1.24e-4 -0.2755142,0.123245 -0.2753906,0.27539 v 0.7609184 c -1.242e-4,0.152146 0.1232451,0.275515 0.2753906,0.275391 0.1521455,1.24e-4 0.2755148,-0.123245 0.2753906,-0.275391 z"
     id="path1788"
     sodipodi:nodetypes="ccccccc" /><path
     style="color:#000000;fill:#000000;stroke-linecap:round;stroke-linejoin:round;stroke-dasharray:2.20133, 1.10067;stroke-dashoffset:2.20133;-inkscape-stroke:none"
     d="m 5.5033332,0.88263805 c 1.236e-4,-0.152145 -0.1232455,-0.275514 -0.2753906,-0.27539 -0.1521451,-1.24e-4 -0.2755142,0.123245 -0.2753906,0.27539 V 2.5822521 c -1.242e-4,0.152146 0.1232451,0.275515 0.2753906,0.275391 0.1521455,1.24e-4 0.2755148,-0.123245 0.2753906,-0.275391 z"
     id="path1790"
     sodipodi:nodetypes="ccccccc" /></g></svg>
