<svg
   width="15"
   height="15"
   fill="currentColor"
   viewBox="0 0 6.35 6.35"
   xml:space="preserve"
   xmlns="http://www.w3.org/2000/svg">
   <path d="M 0.92025391 0 L 0.8516276 0.0041341146 C 0.84248761 0.0043304844 0.83341944 0.0046828615 0.82434245 0.0057877604 L 0.75985026 0.017363281 C 0.75068027 0.01820684 0.7416081 0.019738398 0.7325651 0.021497396 L 0.66807292 0.038860677 C 0.65948853 0.041054575 0.6507742 0.044117519 0.64244141 0.047128906 L 0.58208333 0.068626302 C 0.57342334 0.072099699 0.56471181 0.075867777 0.55645182 0.080201823 L 0.50022786 0.10748698 C 0.49152787 0.11159698 0.48281535 0.11571825 0.47459635 0.12071615 L 0.42167969 0.15461589 C 0.4136097 0.15942088 0.40606864 0.16472053 0.39852865 0.17032552 L 0.34809245 0.20670573 C 0.34130245 0.21225072 0.33447569 0.21872884 0.3282487 0.22489583 L 0.28111979 0.26789062 C 0.2749498 0.27411762 0.2693015 0.28012096 0.26375651 0.28690755 L 0.22076172 0.33403646 C 0.21459172 0.34026345 0.20894343 0.34709362 0.20339844 0.35388021 L 0.16619141 0.40597005 C 0.16064141 0.41287605 0.15534077 0.42005866 0.15048177 0.42746745 L 0.1190625 0.48203776 C 0.1141225 0.48962075 0.11000533 0.49798303 0.10583333 0.50601562 L 0.078548177 0.56472005 C 0.074878181 0.57301704 0.071466299 0.58090535 0.068626302 0.58952474 L 0.044648437 0.65070964 C 0.041638441 0.65904263 0.039397029 0.66693003 0.037207031 0.67551432 L 0.021497396 0.74000651 C 0.019077398 0.7490155 0.017199634 0.75808368 0.015709635 0.76729167 L 0.0057877604 0.83426432 C 0.0046877615 0.84334131 0.0043341144 0.85240819 0.0041341146 0.86154948 L 0 0.92934896 C -8.3199917e-05 0.93325495 -8.3199917e-05 0.93784551 0 0.9417513 L 0 1.0492383 C -1.6696674e-05 1.0697251 0.0023843023 1.0895575 0.0066145833 1.1087695 C 0.0021417543 1.128494 -1.7126162e-05 1.148873 0 1.1699544 L 0 2.6764258 C -3.8812461e-06 2.6811803 -0.00023442622 2.6857863 0 2.6904818 L 0 3.0013672 C -0.00023444342 3.0060626 -3.8624961e-06 3.0106687 0 3.0154232 L 0 3.7761003 C -3.8812461e-06 3.7808548 -0.00023442622 3.7854608 0 3.7901562 L 0 5.593457 C 0 6.005957 0.33705336 6.35 0.74992839 6.35 L 3.982806 6.35 L 5.3404492 6.35 C 5.3532133 6.3500104 5.36618 6.3491916 5.3784831 6.3475195 C 5.3952573 6.3497959 5.4122203 6.3509061 5.4297461 6.35 L 5.4983724 6.3458659 C 5.5075124 6.3456695 5.5165806 6.3444872 5.5256576 6.3433854 L 5.5901497 6.3318099 C 5.5993197 6.3309664 5.6083919 6.3302626 5.6174349 6.3285026 L 5.6819271 6.3103125 C 5.6905071 6.3081225 5.6992256 6.3058811 5.7075586 6.3028711 L 5.7679167 6.2813737 C 5.7765767 6.2779037 5.7852882 6.2741372 5.7935482 6.2697982 L 5.8497721 6.242513 C 5.8584721 6.238403 5.8671847 6.233459 5.8754036 6.228457 L 5.9283203 6.1953841 C 5.9363903 6.1905841 5.9439314 6.1852795 5.9514714 6.1796745 L 6.0019076 6.1424674 C 6.0086975 6.1369175 6.0155243 6.1312712 6.0217513 6.1251042 L 6.0688802 6.0821094 C 6.0750502 6.0758794 6.0806985 6.0690516 6.0862435 6.0622656 L 6.1292383 6.0159635 C 6.1354083 6.0097335 6.1410566 6.0029058 6.1466016 5.9961198 L 6.1838086 5.9432031 C 6.1893586 5.9362931 6.1946592 5.9291137 6.1995182 5.9217057 L 6.2309375 5.8671354 C 6.2358775 5.8595554 6.2399947 5.8520164 6.2441667 5.8439844 L 6.2714518 5.7852799 C 6.2751218 5.77698 6.2785337 5.7682684 6.2813737 5.7596484 L 6.3053516 5.6992904 C 6.3083616 5.6909604 6.310603 5.6822438 6.312793 5.6736589 L 6.3285026 5.6091667 C 6.3309226 5.6001567 6.3328004 5.5910895 6.3342904 5.5818815 L 6.3442122 5.5157357 C 6.3453122 5.5066557 6.3456659 5.4975915 6.3458659 5.4884505 L 6.35 5.4198242 C 6.3500832 5.4159142 6.3500832 5.4121577 6.35 5.4082487 L 6.35 5.3007617 C 6.3501231 5.1486137 6.226816 5.0253017 6.074668 5.0254297 C 5.9225228 5.0253057 5.7992119 5.1486166 5.7993359 5.3007617 L 5.7993359 5.4008073 L 5.7968555 5.4495898 L 5.7910677 5.4884505 L 5.7819727 5.5256576 L 5.7695703 5.5628646 L 5.752207 5.5959375 L 5.7323633 5.6290104 L 5.7108659 5.6579492 L 5.6860612 5.6852344 L 5.658776 5.7108659 L 5.6290104 5.7323633 L 5.5975911 5.752207 L 5.5645182 5.7695703 L 5.5297917 5.7811458 L 5.4925846 5.7910677 L 5.4553776 5.7968555 L 5.4024609 5.7985091 C 5.3932221 5.7989491 5.3841375 5.8004975 5.3751758 5.8018164 L 5.374349 5.8018164 C 5.3634042 5.8005017 5.3517504 5.7993268 5.3404492 5.7993359 L 4.7054492 5.7993359 C 4.7242064 5.7338 4.734388 5.6644945 4.734388 5.593457 L 4.734388 2.3729818 C 4.734388 1.9604818 4.3956811 1.615612 3.982806 1.615612 L 0.74992839 1.615612 C 0.68093029 1.615612 0.61421117 1.6249076 0.55066406 1.6428971 L 0.55066406 1.1699544 C 0.55068072 1.1494472 0.54828804 1.1296529 0.54404948 1.1104232 C 0.54853646 1.0906692 0.55068127 1.070354 0.55066406 1.0492383 L 0.55066406 0.94919271 L 0.55314453 0.90041016 L 0.55893229 0.86154948 L 0.56802734 0.82434245 L 0.58042969 0.78713542 L 0.59779297 0.7540625 L 0.61763672 0.72098958 L 0.63913411 0.69122396 L 0.6639388 0.6639388 L 0.69122396 0.63830729 L 0.72098958 0.6168099 L 0.75240885 0.59779297 L 0.78548177 0.58042969 L 0.82020833 0.56802734 L 0.85741536 0.55893229 L 0.8946224 0.55314453 L 0.94753906 0.55066406 C 1.0997772 0.54341853 1.2166842 0.4143101 1.2088151 0.26210286 C 1.2015699 0.10986447 1.0724614 -0.0078690921 0.92025391 0 z M 1.9339388 0 C 1.7883795 0.0072672127 1.6725426 0.12794123 1.6726628 0.27533203 C 1.6725388 0.42747738 1.7958489 0.55078826 1.9479948 0.55066406 L 2.7086719 0.55066406 C 2.8608167 0.55078766 2.9841279 0.42747698 2.9840039 0.27533203 C 2.9841279 0.12318708 2.8608167 -0.00012359988 2.7086719 0 L 1.9479948 0 C 1.9432402 -3.8812461e-06 1.9386343 -0.00023442622 1.9339388 0 z M 3.6272721 0 C 3.4817128 0.0072672127 3.365876 0.12794123 3.3659961 0.27533203 C 3.3658721 0.42747738 3.4891823 0.55078826 3.6413281 0.55066406 L 4.4020052 0.55066406 C 4.5541501 0.55078766 4.6774612 0.42747698 4.6773372 0.27533203 C 4.6774612 0.12318708 4.5541501 -0.00012359988 4.4020052 0 L 3.6413281 0 C 3.6365736 -3.8812461e-06 3.6319676 -0.00023442622 3.6272721 0 z M 5.4016341 0 C 5.2619532 0.0069659478 5.1479773 0.11937937 5.1411849 0.26210286 C 5.1333158 0.4143101 5.2502228 0.54341853 5.4024609 0.55066406 L 5.4553776 0.55314453 L 5.4925846 0.55893229 L 5.5297917 0.56802734 L 5.5645182 0.58042969 L 5.5975911 0.59779297 L 5.6290104 0.6168099 L 5.658776 0.63830729 L 5.6860612 0.6639388 L 5.7108659 0.69122396 L 5.7323633 0.72098958 L 5.752207 0.7540625 L 5.7695703 0.78713542 L 5.7819727 0.82434245 L 5.7910677 0.86154948 L 5.7968555 0.90041016 L 5.7993359 0.94919271 L 5.7993359 1.0492383 C 5.7992119 1.2013834 5.9225228 1.3246943 6.074668 1.3245703 C 6.226816 1.3246983 6.3501231 1.2013863 6.35 1.0492383 L 6.35 0.9417513 C 6.3500832 0.93784551 6.3500832 0.93325495 6.35 0.92934896 L 6.3458659 0.86154948 C 6.3456659 0.85240819 6.3453122 0.84334131 6.3442122 0.83426432 L 6.3342904 0.76729167 C 6.3328004 0.75808368 6.3309226 0.7490155 6.3285026 0.74000651 L 6.312793 0.67551432 C 6.310603 0.66693003 6.3083616 0.65904263 6.3053516 0.65070964 L 6.2813737 0.58952474 C 6.2785337 0.58090535 6.2751218 0.57301704 6.2714518 0.56472005 L 6.2441667 0.50601562 C 6.2399947 0.49798303 6.2358775 0.48962075 6.2309375 0.48203776 L 6.1995182 0.42746745 C 6.1946592 0.42005866 6.1893586 0.41287605 6.1838086 0.40597005 L 6.1466016 0.35388021 C 6.1410566 0.34709362 6.1354083 0.34026345 6.1292383 0.33403646 L 6.0862435 0.28690755 C 6.0806985 0.28012096 6.0750502 0.27411762 6.0688802 0.26789062 L 6.0217513 0.22489583 C 6.0155243 0.21872884 6.0086975 0.21225072 6.0019076 0.20670573 L 5.9514714 0.17032552 C 5.9439314 0.16472053 5.9363903 0.15942088 5.9283203 0.15461589 L 5.8754036 0.12071615 C 5.8671847 0.11571825 5.8584721 0.11159698 5.8497721 0.10748698 L 5.7935482 0.080201823 C 5.7852882 0.075867777 5.7765767 0.072099699 5.7679167 0.068626302 L 5.7075586 0.047128906 C 5.6992256 0.044117509 5.6905071 0.041054575 5.6819271 0.038860677 L 5.6174349 0.021497396 C 5.6083919 0.019738398 5.5993197 0.01820684 5.5901497 0.017363281 L 5.5256576 0.0057877604 C 5.5165806 0.0046828615 5.5075124 0.0043304844 5.4983724 0.0041341146 L 5.4297461 0 C 5.4202331 -0.00049181826 5.4109462 -0.00046439652 5.4016341 0 z M 6.060612 1.6726628 C 5.9150535 1.6799301 5.7992162 1.8006045 5.7993359 1.9479948 L 5.7993359 2.7086719 C 5.7992117 2.8608177 5.9225226 2.9841279 6.074668 2.9840039 C 6.2268133 2.9841279 6.3501242 2.8608177 6.35 2.7086719 L 6.35 1.9479948 C 6.3501236 1.7958499 6.2268129 1.6725388 6.074668 1.6726628 C 6.0699134 1.6726589 6.0653074 1.6724283 6.060612 1.6726628 z M 6.060612 3.3659961 C 5.9150535 3.3732635 5.7992162 3.4939378 5.7993359 3.6413281 L 5.7993359 4.4020052 C 5.7992117 4.5541511 5.9225226 4.6774612 6.074668 4.6773372 C 6.2268133 4.6774612 6.3501242 4.5541511 6.35 4.4020052 L 6.35 3.6413281 C 6.3501236 3.4891833 6.2268129 3.3658721 6.074668 3.3659961 C 6.0699134 3.3659922 6.0653074 3.3657617 6.060612 3.3659961 z " />
</svg>
