<svg
   width="15"
   height="15"
   fill="currentColor"
   viewBox="0 0 6.35 6.35"
   xml:space="preserve"
   xmlns="http://www.w3.org/2000/svg">
   <path d="M 0.91611979 0 C 0.41344038 0 -1.2533172e-16 0.41344038 0 0.91611979 L 0 2.6491406 A 0.27516651 0.27516651 0 0 0 0 2.7351302 L 0 5.4338802 C 0 5.9365597 0.41344038 6.35 0.91611979 6.35 L 5.4338802 6.35 C 5.9365597 6.35 6.35 5.9365597 6.35 5.4338802 L 6.35 0.91611979 C 6.35 0.41344038 5.9365597 -1.2533172e-16 5.4338802 0 L 0.91611979 0 z M 0.95167318 0.56058594 L 5.4338802 0.56058594 C 5.6355148 0.56058594 5.7894141 0.7144852 5.7894141 0.91611979 L 5.7894141 5.4008073 L 3.4404102 3.0509766 A 0.27516651 0.27516651 0 0 0 3.4404102 3.0501497 A 0.27516651 0.27516651 0 0 0 3.3825326 2.9666406 A 0.27516651 0.27516651 0 0 0 3.3039844 2.913724 L 0.95167318 0.56058594 z M 0.56058594 0.95167318 L 1.0922331 1.4824935 L 0.56058594 2.0133138 L 0.56058594 0.95167318 z M 1.4808398 1.8711003 L 1.9388997 2.3291602 L 0.56058594 3.7066471 L 0.56058594 2.7905273 L 1.4808398 1.8711003 z M 2.3283333 2.7185937 L 2.7855664 3.175 L 0.56058594 5.3999805 L 0.56058594 4.4838607 A 0.27516651 0.27516651 0 0 0 0.57216146 4.4747656 L 2.3283333 2.7185937 z M 3.1741732 3.5636068 L 3.6330599 4.0216667 L 1.8644857 5.7894141 L 0.95084635 5.7894141 L 3.1741732 3.5636068 z M 4.0216667 4.4102734 L 4.4797266 4.8683333 L 3.557819 5.7894141 L 2.6416992 5.7894141 L 4.0216667 4.4102734 z M 4.8691602 5.2577669 L 5.4008073 5.7894141 L 4.3358594 5.7894141 L 4.8691602 5.2577669 z " />
</svg>
